<?xml version="1.0" encoding="utf-8"?>
<!-- Generator: Adobe Illustrator 16.0.0, SVG Export Plug-In . SVG Version: 6.00 Build 0)  -->
<!DOCTYPE svg PUBLIC "-//W3C//DTD SVG 1.1//EN" "http://www.w3.org/Graphics/SVG/1.1/DTD/svg11.dtd">
<svg version="1.1" id="Layer_1" xmlns="http://www.w3.org/2000/svg" xmlns:xlink="http://www.w3.org/1999/xlink" x="0px" y="0px"
	 width="22.063px" height="20.203px" viewBox="0 0 22.063 20.203" enable-background="new 0 0 22.063 20.203" xml:space="preserve">
<g>
	<path fill="#040000" d="M16.083,6.313V5.05c0-2.785-2.267-5.05-5.051-5.05C8.246,0,5.981,2.265,5.981,5.05v1.263H0l2.192,10.732
		c0,1.744,1.413,3.158,3.157,3.158h11.363c1.744,0,3.157-1.414,3.157-3.158l2.192-10.732H16.083z M8.505,5.05
		c0-1.393,1.135-2.525,2.527-2.525c1.391,0,2.525,1.133,2.525,2.525v1.263H8.505V5.05z M14.819,9.785
		c-0.522,0-0.947-0.424-0.947-0.946c0-0.524,0.425-0.947,0.947-0.947c0.523,0,0.946,0.423,0.946,0.947
		C15.766,9.361,15.343,9.785,14.819,9.785z M7.243,9.785c-0.523,0-0.946-0.424-0.946-0.946c0-0.524,0.423-0.947,0.946-0.947
		c0.522,0,0.947,0.423,0.947,0.947C8.19,9.361,7.766,9.785,7.243,9.785z"/>
</g>
</svg>
